<svg width="94" height="94" viewBox="0 0 94 94" fill="none" xmlns="http://www.w3.org/2000/svg">
<g clip-path="url(#clip0_99_709)">
<path d="M47 92C71.8528 92 92 71.8528 92 47C92 22.1472 71.8528 2 47 2C22.1472 2 2 22.1472 2 47C2 71.8528 22.1472 92 47 92Z" fill="#FFFFE9" stroke="white" stroke-width="4"/>
<path d="M34.5 46.7832C34.5 50.0984 35.817 53.2778 38.1612 55.622C40.5054 57.9662 43.6848 59.2832 47 59.2832C50.3152 59.2832 53.4946 57.9662 55.8388 55.622C58.183 53.2778 59.5 50.0984 59.5 46.7832C59.5 43.468 58.183 40.2886 55.8388 37.9444C53.4946 35.6002 50.3152 34.2832 47 34.2832C43.6848 34.2832 40.5054 35.6002 38.1612 37.9444C35.817 40.2886 34.5 43.468 34.5 46.7832Z" stroke="#161C24" stroke-width="2.5" stroke-linecap="square"/>
<path d="M47 46.7836V42.3193" stroke="#161C24" stroke-width="2.5" stroke-linecap="square"/>
<path d="M47.4902 47.833L52.5796 52.364" stroke="#161C24" stroke-width="2.5" stroke-linecap="square"/>
</g>
<defs>
<clipPath id="clip0_99_709">
<rect width="94" height="94" fill="white"/>
</clipPath>
</defs>
</svg>
