<svg width="94" height="94" viewBox="0 0 94 94" fill="none" xmlns="http://www.w3.org/2000/svg">
<g clip-path="url(#clip0_99_724)">
<path d="M47 92C71.8528 92 92 71.8528 92 47C92 22.1472 71.8528 2 47 2C22.1472 2 2 22.1472 2 47C2 71.8528 22.1472 92 47 92Z" fill="#FFFFE9" stroke="white" stroke-width="4"/>
<path d="M37 43.7222V39.5556C37 38.7885 37.6218 38.1667 38.3889 38.1667H40.9063M37 43.7222V57.6111C37 58.3782 37.6218 59 38.3889 59H56.4444C57.2115 59 57.8333 58.3782 57.8333 57.6111V43.7222M37 43.7222H57.8333M40.9063 38.1667V34M40.9063 38.1667H53.2761M57.8333 43.7222V39.5556C57.8333 38.7885 57.2115 38.1667 56.4444 38.1667H53.2761M53.2761 38.1667V34" stroke="black" stroke-width="2.5" stroke-linecap="round" stroke-linejoin="round"/>
<path d="M41.8613 49.2773H52.9724" stroke="black" stroke-width="2.5" stroke-linecap="round" stroke-linejoin="round"/>
</g>
<defs>
<clipPath id="clip0_99_724">
<rect width="94" height="94" fill="white"/>
</clipPath>
</defs>
</svg>
