<svg width="94" height="94" viewBox="0 0 94 94" fill="none" xmlns="http://www.w3.org/2000/svg">
<g clip-path="url(#clip0_147_11)">
<path d="M47 92C71.8528 92 92 71.8528 92 47C92 22.1472 71.8528 2 47 2C22.1472 2 2 22.1472 2 47C2 71.8528 22.1472 92 47 92Z" fill="#FFFFE9" stroke="white" stroke-width="4"/>
<path d="M48.1579 38.3158H39.2105C37.7367 38.3158 36.9998 38.3158 36.4369 38.6026C35.9417 38.8549 35.5391 39.2575 35.2868 39.7527C35 40.3156 35 41.0525 35 42.5263V52.5263C35 54.0001 35 54.7371 35.2868 55.3C35.5391 55.7951 35.9417 56.1978 36.4369 56.45C36.9998 56.7368 37.7367 56.7368 39.2105 56.7368H54.4737C55.9475 56.7368 56.6845 56.7368 57.2474 56.45C57.7425 56.1978 58.1451 55.7951 58.3974 55.3C58.6842 54.7371 58.6842 54.0001 58.6842 52.5263V48.8421M35 42.2632L42.1715 47.0442C43.8592 48.1692 44.703 48.7318 45.615 48.9505C46.4216 49.1438 47.2626 49.1438 48.0692 48.9505C48.9812 48.7318 49.825 48.1692 51.5126 47.0442M60 40.2895C60 42.1062 58.5272 43.5789 56.7105 43.5789C54.8938 43.5789 53.4211 42.1062 53.4211 40.2895C53.4211 38.4727 54.8938 37 56.7105 37C58.5272 37 60 38.4727 60 40.2895Z" stroke="black" stroke-width="2.5" stroke-linecap="round" stroke-linejoin="round"/>
</g>
<defs>
<clipPath id="clip0_147_11">
<rect width="94" height="94" fill="white"/>
</clipPath>
</defs>
</svg>
