<svg width="94" height="94" viewBox="0 0 94 94" fill="none" xmlns="http://www.w3.org/2000/svg">
<g clip-path="url(#clip0_147_7)">
<path d="M47 92C71.8528 92 92 71.8528 92 47C92 22.1472 71.8528 2 47 2C22.1472 2 2 22.1472 2 47C2 71.8528 22.1472 92 47 92Z" fill="#FFFFE9" stroke="white" stroke-width="4"/>
<path d="M34 41.1667C34 38.8655 35.8655 37 38.1667 37H54.8333C57.1346 37 59 38.8655 59 41.1667V52.2778C59 54.579 57.1346 56.4444 54.8333 56.4444H38.1667C35.8655 56.4444 34 54.579 34 52.2778V41.1667Z" stroke="black" stroke-width="2.5"/>
<path d="M34 43.9443H59" stroke="black" stroke-width="2.5"/>
<path d="M49.2778 50.8887H53.4445" stroke="black" stroke-width="2.5" stroke-linecap="round"/>
</g>
<defs>
<clipPath id="clip0_147_7">
<rect width="94" height="94" fill="white"/>
</clipPath>
</defs>
</svg>
