<svg width="28" height="29" viewBox="0 0 28 29" fill="none" xmlns="http://www.w3.org/2000/svg">
<path d="M14.0663 16.0077C13.6304 15.1309 13.9526 14.0619 14.8002 13.5726C15.635 13.0906 16.6956 13.3355 17.2339 14.1345L23.5379 23.492C24.3789 24.7404 23.9835 26.4486 22.6792 27.2016C21.3935 27.9439 19.7556 27.4497 19.0943 26.1197L14.0663 16.0077Z" stroke="#FCB044" stroke-width="2.5"/>
<path d="M1.65627 12.6121C0.946491 11.3628 1.37985 9.76758 2.6242 9.04915L14.7784 2.03194C15.6747 1.51446 16.7887 1.57957 17.6155 2.19774L23.4849 6.58625C24.9824 7.70594 24.8416 10.0073 23.2181 10.9446L8.52169 19.4296C7.27734 20.148 5.69321 19.7176 4.98343 18.4683L1.65627 12.6121Z" fill="white" stroke="#FCB044" stroke-width="2.5"/>
</svg>
