<svg width="31" height="27" viewBox="0 0 31 27" fill="none" xmlns="http://www.w3.org/2000/svg">
<g clip-path="url(#clip0_21182_1601)">
<path d="M21.418 1.3623H9.41797C7.76111 1.3623 6.41797 2.70545 6.41797 4.3623V13.2373C6.41797 14.8942 7.76111 16.2373 9.41797 16.2373H21.418C23.0748 16.2373 24.418 14.8942 24.418 13.2373V4.3623C24.418 2.70545 23.0748 1.3623 21.418 1.3623Z" fill="white" stroke="#FCB044" stroke-width="2.5" stroke-linejoin="round"/>
<path d="M5.29297 12.4893H25.5084V16.9805C25.5084 18.0851 24.613 18.9805 23.5084 18.9805H7.29297C6.1884 18.9805 5.29297 18.0851 5.29297 16.9805V12.4893Z" fill="white" stroke="#FCB044" stroke-width="2.5" stroke-linejoin="round"/>
<path d="M1.58203 10.6277C1.58203 8.07134 3.65435 5.99902 6.21068 5.99902C6.2552 5.99902 6.29129 6.03511 6.29129 6.07963V15.9814C6.29129 17.086 7.18672 17.9814 8.29129 17.9814H22.5067C23.6113 17.9814 24.5067 17.086 24.5067 15.9814V6.07963C24.5067 6.03511 24.5428 5.99902 24.5874 5.99902C27.1437 5.99902 29.216 8.07134 29.216 10.6277V16.9486C29.216 20.1199 26.6452 22.6907 23.4739 22.6907H7.32409C4.15284 22.6907 1.58203 20.1199 1.58203 16.9486V10.6277Z" fill="white" stroke="#FCB044" stroke-width="2.5" stroke-linejoin="round"/>
<path d="M5.26083 22.6904H8.73827L6.70018 25.6796C6.4919 25.9851 6.14608 26.1679 5.77635 26.1679C5.03909 26.1679 4.50363 25.4668 4.69762 24.7555L5.26083 22.6904Z" fill="#FCB044" stroke="#FCB044" stroke-linejoin="round"/>
<path d="M25.5399 22.6904H22.0625L24.1005 25.6796C24.3088 25.9851 24.6546 26.1679 25.0244 26.1679C25.7616 26.1679 26.2971 25.4668 26.1031 24.7555L25.5399 22.6904Z" fill="#FCB044" stroke="#FCB044" stroke-linejoin="round"/>
</g>
<defs>
<clipPath id="clip0_21182_1601">
<rect width="31" height="27" fill="white"/>
</clipPath>
</defs>
</svg>
