<svg width="24" height="24" viewBox="0 0 24 24" fill="none" xmlns="http://www.w3.org/2000/svg">
<path d="M20.2315 10.7475C20.2315 17.2021 13.6204 21.1786 12.2466 21.936C12.1704 21.978 12.0849 22 11.998 22C11.9111 22 11.8256 21.978 11.7495 21.936C10.3746 21.1786 3.76562 17.2021 3.76562 10.7475C3.76562 5.6019 6.85297 2 11.9985 2C17.1441 2 20.2315 5.6019 20.2315 10.7475Z" stroke="#FCB044" stroke-width="2.5" stroke-linecap="round" stroke-linejoin="round"/>
<path d="M11.9994 13.574C13.8199 13.574 15.2957 12.0982 15.2957 10.2777C15.2957 8.45724 13.8199 6.98145 11.9994 6.98145C10.1789 6.98145 8.70312 8.45724 8.70312 10.2777C8.70312 12.0982 10.1789 13.574 11.9994 13.574Z" fill="#FCB044"/>
</svg>
