<svg width="184" height="33" viewBox="0 0 184 33" fill="none" xmlns="http://www.w3.org/2000/svg">
<path fill-rule="evenodd" clip-rule="evenodd" d="M28.3422 14.0322L17.1472 5.78323L5.95211 14.0322V26.9222H28.3422V14.0322ZM2.18644 10.3888C1.3053 11.0381 0.785156 12.0674 0.785156 13.1619V28.6445C0.785156 30.5469 2.32737 32.0891 4.22979 32.0891H30.0645C31.967 32.0891 33.5092 30.5469 33.5092 28.6445V13.1619C33.5092 12.0674 32.989 11.0381 32.1079 10.3888L19.1905 0.870729C17.9754 -0.024619 16.3189 -0.0246176 15.1038 0.870731L2.18644 10.3888Z" fill="#0964FC"/>
<mask id="mask0_13128_7445" style="mask-type:alpha" maskUnits="userSpaceOnUse" x="0" y="0" width="34" height="33">
<path d="M0.785156 13.1619C0.785156 12.0674 1.3053 11.0381 2.18644 10.3888L15.1038 0.870731C16.3189 -0.0246176 17.9754 -0.024619 19.1905 0.870729L32.1079 10.3888C32.989 11.0381 33.5092 12.0674 33.5092 13.1619V28.6445C33.5092 30.5469 31.967 32.0891 30.0645 32.0891H4.22979C2.32737 32.0891 0.785156 30.5469 0.785156 28.6445V13.1619Z" fill="#D9D9D9"/>
</mask>
<g mask="url(#mask0_13128_7445)">
<path fill-rule="evenodd" clip-rule="evenodd" d="M28.3422 27.918L17.1472 19.669L5.95211 27.918V40.808H28.3422V27.918ZM1.4858 24.7909C1.04523 25.1155 0.785156 25.6302 0.785156 26.1774V44.2526C0.785156 45.2038 1.55626 45.9749 2.50747 45.9749H31.7869C32.7381 45.9749 33.5092 45.2038 33.5092 44.2526V26.1774C33.5092 25.6302 33.2491 25.1155 32.8085 24.7909L18.1688 14.0037C17.5613 13.556 16.733 13.5561 16.1255 14.0037L1.4858 24.7909Z" fill="#0964FC"/>
</g>
<path d="M45.6394 25.6445V7.07683H49.8879V14.5249H57.2835V7.07683H61.5321V25.6445H57.2835V18.4325H49.8879V25.6445H45.6394ZM69.1125 25.8543C68.4656 25.8543 67.8536 25.7669 67.2767 25.5921C66.6997 25.4172 66.1839 25.155 65.7294 24.8053C65.2748 24.4556 64.9164 24.0185 64.6541 23.494C64.3919 22.9695 64.2607 22.3576 64.2607 21.6582C64.2607 20.6617 64.4618 19.8749 64.8639 19.2979C65.2835 18.7035 65.843 18.2664 66.5424 17.9867C67.2592 17.6894 68.0722 17.4971 68.9813 17.4097C69.8905 17.3223 70.8346 17.2786 71.8137 17.2786H73.125C73.125 16.8415 73.0376 16.4656 72.8627 16.1509C72.7054 15.8187 72.4606 15.5564 72.1284 15.3641C71.7962 15.1718 71.3854 15.0756 70.8958 15.0756C70.5461 15.0756 70.2139 15.1281 69.8992 15.233C69.602 15.3204 69.3485 15.4515 69.1387 15.6264C68.9464 15.7837 68.8152 15.9848 68.7453 16.2296H64.5754C64.6978 15.4078 64.9513 14.7085 65.336 14.1315C65.7381 13.5371 66.2277 13.0563 66.8046 12.6891C67.3991 12.3219 68.0634 12.0509 68.7978 11.8761C69.5321 11.6838 70.2839 11.5876 71.0532 11.5876C73.0813 11.5876 74.5936 12.1558 75.5902 13.2923C76.5868 14.4287 77.085 16.0722 77.085 18.2227V25.6445H73.2823L73.2561 23.835C72.819 24.4993 72.3207 24.9714 71.7613 25.2511C71.2018 25.5309 70.6773 25.697 70.1877 25.7494C69.6982 25.8194 69.3398 25.8543 69.1125 25.8543ZM70.1615 22.6286C70.686 22.6286 71.1755 22.5149 71.6301 22.2877C72.0847 22.0429 72.4519 21.7369 72.7316 21.3698C73.0288 20.9851 73.1774 20.5743 73.1774 20.1372V19.9274H70.6073C70.3276 19.9274 70.0479 19.9448 69.7681 19.9798C69.5059 20.0148 69.2698 20.0847 69.06 20.1896C68.8502 20.277 68.6841 20.4082 68.5617 20.583C68.4393 20.7578 68.3782 20.9851 68.3782 21.2649C68.3782 21.5621 68.4568 21.8156 68.6142 22.0254C68.7715 22.2177 68.9813 22.3663 69.2436 22.4712C69.5233 22.5761 69.8293 22.6286 70.1615 22.6286ZM79.7408 25.6445V11.8237H83.596L83.832 13.2398C84.2341 12.7853 84.6799 12.4356 85.1695 12.1908C85.6765 11.946 86.1748 11.7799 86.6643 11.6925C87.1714 11.6051 87.6085 11.5614 87.9756 11.5614C89.2869 11.5614 90.3097 11.8586 91.044 12.4531C91.7958 13.03 92.3291 13.8081 92.6438 14.7871C92.9585 15.7662 93.1158 16.8415 93.1158 18.0129V25.6445H88.9722V18.4587C88.9722 18.0916 88.9372 17.7332 88.8673 17.3835C88.7974 17.0163 88.675 16.6841 88.5001 16.3869C88.3428 16.0722 88.1155 15.8274 87.8183 15.6526C87.521 15.4603 87.1364 15.3641 86.6643 15.3641C86.0524 15.3641 85.5366 15.5127 85.117 15.8099C84.6974 16.1072 84.3915 16.5093 84.1991 17.0163C84.0068 17.5059 83.9107 18.0566 83.9107 18.6685V25.6445H79.7408ZM101.465 25.8543C100.049 25.8543 98.8778 25.5309 97.9512 24.884C97.0245 24.2196 96.3339 23.3542 95.8794 22.2877C95.4248 21.2037 95.1975 20.0148 95.1975 18.721C95.1975 17.3223 95.451 16.0897 95.958 15.0232C96.4651 13.9392 97.2081 13.0912 98.1872 12.4793C99.1663 11.8674 100.373 11.5614 101.806 11.5614C102.296 11.5614 102.759 11.6139 103.196 11.7188C103.651 11.8237 104.07 11.981 104.455 12.1908C104.857 12.3831 105.189 12.6366 105.452 12.9514V7.07683H109.622V25.6445H105.557V24.2546C105.224 24.6217 104.84 24.919 104.403 25.1462C103.983 25.3735 103.528 25.5484 103.039 25.6708C102.549 25.7931 102.025 25.8543 101.465 25.8543ZM102.357 22.0779C103.091 22.0779 103.686 21.9205 104.14 21.6058C104.595 21.2736 104.927 20.854 105.137 20.347C105.364 19.8225 105.478 19.2805 105.478 18.721C105.478 18.1265 105.364 17.5758 105.137 17.0688C104.927 16.5617 104.595 16.1509 104.14 15.8362C103.686 15.5215 103.091 15.3641 102.357 15.3641C101.605 15.3641 101.002 15.5389 100.548 15.8886C100.11 16.2208 99.7957 16.6492 99.6034 17.1737C99.4285 17.6982 99.3411 18.2402 99.3411 18.7997C99.3411 19.2193 99.3936 19.6301 99.4985 20.0323C99.6034 20.4169 99.7695 20.7666 99.9968 21.0813C100.242 21.3785 100.556 21.6233 100.941 21.8156C101.326 21.9904 101.798 22.0779 102.357 22.0779ZM118.429 32.096C117.363 32.096 116.314 31.9562 115.282 31.6764C114.268 31.3967 113.298 30.9421 112.371 30.3127L113.682 26.9558C114.207 27.3405 114.81 27.6464 115.492 27.8737C116.191 28.101 116.987 28.2146 117.878 28.2146C119.19 28.2146 120.177 27.9349 120.842 27.3754C121.506 26.8159 121.838 25.9592 121.838 24.8053V24.3857C121.541 24.7529 121.174 25.0413 120.737 25.2511C120.3 25.461 119.845 25.6096 119.373 25.697C118.901 25.8019 118.429 25.8543 117.957 25.8543C116.628 25.8543 115.562 25.5746 114.757 25.0151C113.953 24.4556 113.368 23.6864 113 22.7073C112.633 21.7282 112.45 20.6267 112.45 19.4028V11.8237H116.567V18.5899C116.567 18.9745 116.593 19.3679 116.646 19.77C116.698 20.1721 116.812 20.5568 116.987 20.9239C117.161 21.2736 117.424 21.5621 117.773 21.7894C118.141 21.9992 118.613 22.1041 119.19 22.1041C119.976 22.1041 120.553 21.9118 120.92 21.5271C121.288 21.1425 121.524 20.6704 121.629 20.1109C121.733 19.534 121.786 18.957 121.786 18.38V11.8237H125.956V22.9957C125.956 24.342 125.842 25.5659 125.615 26.6673C125.388 27.7863 124.994 28.7479 124.435 29.5521C123.875 30.3564 123.106 30.9771 122.127 31.4142C121.148 31.8687 119.915 32.096 118.429 32.096ZM129.733 25.6445V15.5215H127.714V11.8237H129.733V10.6435C129.733 9.577 129.908 8.70281 130.258 8.02095C130.608 7.33908 131.15 6.8408 131.884 6.52609C132.636 6.21139 133.571 6.05403 134.69 6.05403H137.208V9.75184H135.215C134.882 9.75184 134.62 9.80429 134.428 9.90919C134.236 9.99661 134.096 10.1452 134.008 10.355C133.938 10.5473 133.903 10.7921 133.903 11.0893V11.8237H137.208V15.5215H133.903V25.6445H129.733ZM138.851 25.6445V7.07683H143.021V25.6445H138.851ZM152.298 25.8543C150.917 25.8543 149.684 25.5746 148.6 25.0151C147.533 24.4556 146.694 23.6514 146.082 22.6024C145.47 21.5359 145.164 20.2595 145.164 18.7734C145.164 17.2523 145.47 15.9586 146.082 14.892C146.712 13.8081 147.56 12.9863 148.626 12.4268C149.693 11.8499 150.899 11.5614 152.245 11.5614C153.609 11.5614 154.815 11.8586 155.864 12.4531C156.913 13.03 157.744 13.8605 158.356 14.9445C158.968 16.011 159.274 17.3048 159.274 18.8259C159.274 20.312 158.976 21.5796 158.382 22.6286C157.805 23.6776 156.992 24.4819 155.943 25.0413C154.894 25.5833 153.679 25.8543 152.298 25.8543ZM152.219 21.9992C152.953 21.9992 153.539 21.8418 153.976 21.5271C154.413 21.2124 154.719 20.8103 154.894 20.3207C155.086 19.8312 155.183 19.3242 155.183 18.7997C155.183 18.2751 155.086 17.7506 154.894 17.2261C154.719 16.7016 154.413 16.2733 153.976 15.9411C153.557 15.5914 152.971 15.4166 152.219 15.4166C151.485 15.4166 150.899 15.5914 150.462 15.9411C150.025 16.2733 149.71 16.7016 149.518 17.2261C149.325 17.7332 149.229 18.2577 149.229 18.7997C149.229 19.3242 149.325 19.8399 149.518 20.347C149.728 20.8365 150.042 21.2386 150.462 21.5533C150.899 21.8506 151.485 21.9992 152.219 21.9992ZM164.404 25.6445L160.024 11.8237H164.561L166.869 20.7666L169.36 11.8237H173.871L176.363 20.7666L178.644 11.8237H183.076L178.697 25.6445H174.081L171.537 16.9114L169.019 25.6445H164.404Z" fill="white"/>
</svg>
