<svg width="758" height="340" viewBox="0 0 758 340" fill="none" xmlns="http://www.w3.org/2000/svg">
<g clip-path="url(#clip0_12866_27195)">
<g opacity="0.2">
<path d="M672.019 44.4238H594.275L516.531 107.212L516.531 170H594.275L672.019 107.212V44.4238Z" stroke="white" stroke-width="1.5"/>
<path d="M516.535 44.4238H438.791L361.047 107.212L361.047 170H438.791L516.535 107.212V44.4238Z" stroke="white" stroke-width="1.5"/>
<path d="M672.019 -81.1533H594.275L516.531 -18.3651L516.531 44.4231H594.275L672.019 -18.3651V-81.1533Z" stroke="white" stroke-width="1.5"/>
<path d="M516.535 -81.1533H438.791L361.047 -18.3651L361.047 44.4231H438.791L516.535 -18.3651V-81.1533Z" stroke="white" stroke-width="1.5"/>
<path d="M827.511 44.4238H749.767L672.023 107.212L672.023 170H749.767L827.511 107.212V44.4238Z" stroke="white" stroke-width="1.5"/>
<path d="M827.511 -81.1533H749.767L672.023 -18.3651L672.023 44.4231H749.767L827.511 -18.3651V-81.1533Z" stroke="white" stroke-width="1.5"/>
<path d="M827.511 295.577H749.767L672.023 358.365L672.023 421.154H749.767L827.511 358.365V295.577Z" stroke="white" stroke-width="1.5"/>
<path d="M827.511 170H749.767L672.023 232.788L672.023 295.576H749.767L827.511 232.788V170Z" stroke="white" stroke-width="1.5"/>
<path d="M672.019 295.577H594.275L516.531 358.365L516.531 421.154H594.275L672.019 358.365V295.577Z" stroke="white" stroke-width="1.5"/>
<path d="M516.535 295.577H438.791L361.047 358.365L361.047 421.154H438.791L516.535 358.365V295.577Z" stroke="white" stroke-width="1.5"/>
<path d="M672.019 170H594.275L516.531 232.788L516.531 295.576H594.275L672.019 232.788V170Z" stroke="white" stroke-width="1.5"/>
<path d="M516.535 170H438.791L361.047 232.788L361.047 295.576H438.791L516.535 232.788V170Z" stroke="white" stroke-width="1.5"/>
<path d="M361.05 295.577H283.306L205.563 358.365L205.562 421.154H283.306L361.05 358.365V295.577Z" stroke="white" stroke-width="1.5"/>
<path d="M205.566 295.577H127.822L50.0781 358.365L50.0781 421.154H127.822L205.566 358.365V295.577Z" stroke="white" stroke-width="1.5"/>
<path d="M361.05 170H283.306L205.563 232.788L205.562 295.576H283.306L361.05 232.788V170Z" stroke="white" stroke-width="1.5"/>
<path d="M205.566 170H127.822L50.0781 232.788L50.0781 295.576H127.822L205.566 232.788V170Z" stroke="white" stroke-width="1.5"/>
</g>
</g>
<defs>
<clipPath id="clip0_12866_27195">
<rect width="758" height="340" fill="white"/>
</clipPath>
</defs>
</svg>
