<svg width="30" height="30" viewBox="0 0 30 30" fill="none" xmlns="http://www.w3.org/2000/svg">
<g clip-path="url(#clip0_21182_1607)">
<path d="M11.6414 14.8496C10.7456 13.2286 10.374 11.3698 10.5775 9.52897C10.781 7.6881 11.5497 5.95547 12.778 4.56924C14.0062 3.18301 15.6337 2.21125 17.4366 1.78754C19.2396 1.36383 21.1296 1.50898 22.8467 2.20303L17.244 8.2749L18.0368 11.9642L21.7262 12.757L27.798 7.15437C28.4921 8.87149 28.6372 10.7614 28.2135 12.5644C27.7898 14.3674 26.818 15.9948 25.4318 17.2231C24.0456 18.4513 22.3129 19.22 20.4721 19.4236C18.6312 19.6271 16.7725 19.2554 15.1514 18.3597L7.29933 27.464C6.66781 28.0955 5.8113 28.4503 4.9182 28.4503C4.02511 28.4503 3.16859 28.0955 2.53708 27.464C1.90556 26.8325 1.55078 25.9759 1.55078 25.0829C1.55078 24.1898 1.90556 23.3332 2.53708 22.7017L11.6414 14.8496Z" stroke="#FCB044" stroke-width="2.5" stroke-linecap="round" stroke-linejoin="round"/>
</g>
<defs>
<clipPath id="clip0_21182_1607">
<rect width="30" height="30" fill="white"/>
</clipPath>
</defs>
</svg>
