<svg width="94" height="94" viewBox="0 0 94 94" fill="none" xmlns="http://www.w3.org/2000/svg">
<g clip-path="url(#clip0_99_717)">
<path d="M47 92C71.8528 92 92 71.8528 92 47C92 22.1472 71.8528 2 47 2C22.1472 2 2 22.1472 2 47C2 71.8528 22.1472 92 47 92Z" fill="#FFFFE9" stroke="white" stroke-width="4"/>
<path d="M35.5415 52.2083V45.9583C35.5415 39.6563 40.6978 34.5 46.9998 34.5C53.3019 34.5 58.4582 39.6563 58.4582 45.9583V52.2083" stroke="#161C24" stroke-width="2.5" stroke-linecap="square"/>
<path d="M56.3748 55.333C56.3748 57.6351 54.5103 59.4997 52.2082 59.4997H48.0415M56.3748 55.333H54.2915V49.083H58.4582V53.2497C58.4582 54.3997 57.5248 55.333 56.3748 55.333ZM37.6248 55.333H39.7082V49.083H35.5415V53.2497C35.5415 54.3997 36.4748 55.333 37.6248 55.333Z" stroke="#161C24" stroke-width="2.5" stroke-linecap="square"/>
</g>
<defs>
<clipPath id="clip0_99_717">
<rect width="94" height="94" fill="white"/>
</clipPath>
</defs>
</svg>
