<svg width="29" height="30" viewBox="0 0 29 30" fill="none" xmlns="http://www.w3.org/2000/svg">
<g clip-path="url(#clip0_21182_1585)">
<path d="M14.4902 2.58872C15.2712 1.80767 16.5375 1.80767 17.3186 2.58872L27.1686 12.4388C27.9497 13.2198 27.9497 14.4861 27.1686 15.2672L20.3386 22.0972L7.66016 9.41873L14.4902 2.58872Z" stroke="#FCB044" stroke-width="2.5" stroke-miterlimit="10"/>
<path d="M20.3332 22.0949L18.3208 24.1074C17.8378 24.5677 17.1962 24.8245 16.529 24.8245C15.8618 24.8245 15.2203 24.5677 14.7373 24.1074L12.1407 21.5107L5.85669 27.6388C5.35065 28.1454 4.66415 28.4303 3.94813 28.4308C3.24438 28.4172 2.57406 28.1281 2.08122 27.6255C1.58838 27.123 1.31237 26.4471 1.3125 25.7433C1.32659 25.0453 1.61044 24.3799 2.10449 23.8866L8.28459 17.6546L5.68791 15.0579C5.22754 14.575 4.97073 13.9334 4.97073 13.2662C4.97073 12.599 5.22754 11.9574 5.68791 11.4745L7.6484 9.41016L20.3332 22.0949Z" stroke="#FCB044" stroke-width="2.5" stroke-miterlimit="10"/>
<path d="M19.6997 4.96973L14 10.6824" stroke="#FCB044" stroke-width="2.5" stroke-miterlimit="10"/>
</g>
<defs>
<clipPath id="clip0_21182_1585">
<rect width="29" height="30" fill="white"/>
</clipPath>
</defs>
</svg>
