<svg width="94" height="94" viewBox="0 0 94 94" fill="none" xmlns="http://www.w3.org/2000/svg">
<g clip-path="url(#clip0_99_714)">
<path d="M47 92C71.8528 92 92 71.8528 92 47C92 22.1472 71.8528 2 47 2C22.1472 2 2 22.1472 2 47C2 71.8528 22.1472 92 47 92Z" fill="#FFFFE9" stroke="white" stroke-width="4"/>
<path d="M58.9958 38.954L55.3333 42.6165H51.1667V38.4499L54.8292 34.7874C54.0125 34.4728 53.1354 34.2832 52.2083 34.2832C48.1812 34.2832 44.9167 37.5478 44.9167 41.5749C44.9167 42.6978 45.1917 43.7499 45.6458 44.702L39.3375 51.0165C39.1167 50.9811 38.8958 50.9499 38.6667 50.9499C36.3646 50.9499 34.5 52.8145 34.5 55.1165C34.5 57.4186 36.3646 59.2832 38.6667 59.2832C40.9687 59.2832 42.8333 57.4186 42.8333 55.1165C42.8333 54.8936 42.8021 54.679 42.7687 54.4665L49.0875 48.1415C50.0354 48.5915 51.0875 48.8665 52.2083 48.8665C56.2354 48.8665 59.5 45.602 59.5 41.5749C59.5 40.6478 59.3104 39.7707 58.9958 38.954Z" stroke="#161C24" stroke-width="2.5" stroke-linecap="square"/>
</g>
<defs>
<clipPath id="clip0_99_714">
<rect width="94" height="94" fill="white"/>
</clipPath>
</defs>
</svg>
